<?xml version="1.0" encoding="UTF-8" standalone="no"?>
<!-- Created with Inkscape (http://www.inkscape.org/) -->

<svg
   xmlns:dc="http://purl.org/dc/elements/1.1/"
   xmlns:cc="http://creativecommons.org/ns#"
   xmlns:rdf="http://www.w3.org/1999/02/22-rdf-syntax-ns#"
   xmlns:svg="http://www.w3.org/2000/svg"
   xmlns="http://www.w3.org/2000/svg"
   xmlns:sodipodi="http://sodipodi.sourceforge.net/DTD/sodipodi-0.dtd"
   xmlns:inkscape="http://www.inkscape.org/namespaces/inkscape"
   width="210mm"
   height="297mm"
   viewBox="0 0 744.09448819 1052.3622047"
   id="svg2"
   version="1.1"
   inkscape:version="0.91 r13725"
   sodipodi:docname="funfunplot.svg">
  <defs
     id="defs4" />
  <sodipodi:namedview
     id="base"
     pagecolor="#ffffff"
     bordercolor="#666666"
     borderopacity="1.0"
     inkscape:pageopacity="0.0"
     inkscape:pageshadow="2"
     inkscape:zoom="0.5"
     inkscape:cx="-62.887475"
     inkscape:cy="380.33148"
     inkscape:document-units="px"
     inkscape:current-layer="layer1"
     showgrid="false"
     inkscape:window-width="1855"
     inkscape:window-height="1056"
     inkscape:window-x="65"
     inkscape:window-y="24"
     inkscape:window-maximized="1" />
  <metadata
     id="metadata7">
    <rdf:RDF>
      <cc:Work
         rdf:about="">
        <dc:format>image/svg+xml</dc:format>
        <dc:type
           rdf:resource="http://purl.org/dc/dcmitype/StillImage" />
        <dc:title></dc:title>
      </cc:Work>
    </rdf:RDF>
  </metadata>
  <g
     inkscape:label="Capa 1"
     inkscape:groupmode="layer"
     id="layer1">
    <g
       id="g4370"
       inkscape:export-xdpi="57.277309"
       inkscape:export-ydpi="57.277309">
      <flowRoot
         transform="matrix(1.8545338,0,0,1.8545338,-55.333777,196.30562)"
         style="font-style:normal;font-variant:normal;font-weight:normal;font-stretch:normal;font-size:70px;line-height:125%;font-family:Roboto;-inkscape-font-specification:Roboto;text-align:start;letter-spacing:0px;word-spacing:0px;text-anchor:start;fill:#000000;fill-opacity:1;stroke:none;stroke-width:1px;stroke-linecap:butt;stroke-linejoin:miter;stroke-opacity:1"
         id="flowRoot4136"
         xml:space="preserve"><flowRegion
           id="flowRegion4138"><rect
             style="font-style:normal;font-variant:normal;font-weight:normal;font-stretch:normal;font-size:70px;font-family:Roboto;-inkscape-font-specification:Roboto"
             y="145.21935"
             x="37.142857"
             height="168.57143"
             width="607.14288"
             id="rect4140" /></flowRegion><flowPara
           style="font-style:italic;font-variant:normal;font-weight:500;font-stretch:normal;font-family:Roboto;-inkscape-font-specification:'Roboto Medium Italic'"
           id="flowPara4142"><flowSpan
             style="fill:#5fd35f;fill-opacity:1"
             id="flowSpan4212">fun</flowSpan><flowSpan
             id="flowSpan4144"
             style="fill:#ff5555;fill-opacity:1"> fun</flowSpan><flowSpan
             id="flowSpan4214"
             style="fill:#5555ff"> pl    t</flowSpan></flowPara></flowRoot>      <path
         inkscape:connector-curvature="0"
         id="path4283"
         d="m 617.27125,486.62035 a 71.667653,71.667653 0 0 0 -2.28753,0.081 l 0,57.05236 a 14.724245,14.724245 0 0 1 0.81828,-0.10979 14.724245,14.724245 0 0 1 1.46925,-0.0785 14.724245,14.724245 0 0 1 1.0405,0.0366 14.724245,14.724245 0 0 1 1.46139,0.17786 14.724245,14.724245 0 0 1 1.43529,0.32155 14.724245,14.724245 0 0 1 1.39865,0.46536 14.724245,14.724245 0 0 1 1.34114,0.60129 14.724245,14.724245 0 0 1 1.2784,0.73201 14.724245,14.724245 0 0 1 1.19736,0.85488 14.724245,14.724245 0 0 1 1.10584,0.97253 14.724245,14.724245 0 0 1 1.00131,1.07711 14.724245,14.724245 0 0 1 0.89147,1.17121 14.724245,14.724245 0 0 1 0.76861,1.25487 14.724245,14.724245 0 0 1 0.64052,1.32547 14.724245,14.724245 0 0 1 0.50456,1.38298 14.724245,14.724245 0 0 1 0.36601,1.4248 14.724245,14.724245 0 0 1 0.2196,1.45617 14.724245,14.724245 0 0 1 0.0732,1.46925 14.724245,14.724245 0 0 1 -0.0366,1.0405 14.724245,14.724245 0 0 1 -0.17786,1.46141 14.724245,14.724245 0 0 1 -0.32156,1.43526 14.724245,14.724245 0 0 1 -0.46535,1.39866 14.724245,14.724245 0 0 1 -0.60131,1.34116 14.724245,14.724245 0 0 1 -0.73201,1.27839 14.724245,14.724245 0 0 1 -0.85489,1.19735 14.724245,14.724245 0 0 1 -0.97251,1.10586 14.724245,14.724245 0 0 1 -1.07711,1.0013 14.724245,14.724245 0 0 1 -1.17121,0.89148 14.724245,14.724245 0 0 1 -1.25487,0.76859 14.724245,14.724245 0 0 1 -1.32547,0.64054 14.724245,14.724245 0 0 1 -1.38296,0.50456 14.724245,14.724245 0 0 1 -1.42484,0.366 14.724245,14.724245 0 0 1 -1.45614,0.21959 14.724245,14.724245 0 0 1 -1.46926,0.0732 14.724245,14.724245 0 0 1 -1.04052,-0.0366 14.724245,14.724245 0 0 1 -1.46138,-0.17785 14.724245,14.724245 0 0 1 -1.43528,-0.32155 14.724245,14.724245 0 0 1 -1.39865,-0.46538 14.724245,14.724245 0 0 1 -1.34116,-0.60129 14.724245,14.724245 0 0 1 -1.27838,-0.73199 14.724245,14.724245 0 0 1 -1.19737,-0.8549 14.724245,14.724245 0 0 1 -1.10585,-0.97251 14.724245,14.724245 0 0 1 -1.00131,-1.07711 14.724245,14.724245 0 0 1 -0.89145,-1.17121 14.724245,14.724245 0 0 1 -0.76864,-1.25489 14.724245,14.724245 0 0 1 -0.64052,-1.32546 14.724245,14.724245 0 0 1 -0.50456,-1.38298 14.724245,14.724245 0 0 1 -0.36599,-1.42481 14.724245,14.724245 0 0 1 -0.21959,-1.45617 14.724245,14.724245 0 0 1 -0.0732,-1.46926 14.724245,14.724245 0 0 1 0.021,-0.65879 14.724245,14.724245 0 0 1 0.15152,-1.46402 l -57.00789,0 a 71.667653,71.667653 0 0 0 -0.1072,2.12281 71.667653,71.667653 0 0 0 71.66639,71.66642 71.667653,71.667653 0 0 0 71.66899,-71.66642 71.667653,71.667653 0 0 0 -71.66899,-71.66901 z"
         style="opacity:1;fill:#d5d5ff;fill-opacity:1;stroke:#ffffff;stroke-width:13.38532829;stroke-miterlimit:4;stroke-dasharray:none;stroke-dashoffset:0;stroke-opacity:1" />
      <path
         inkscape:connector-curvature="0"
         id="path4262"
         d="m 617.27125,486.62035 a 71.667653,71.667653 0 0 0 -2.28753,0.081 l 0,57.05236 a 14.724245,14.724245 0 0 1 0.81828,-0.10979 14.724245,14.724245 0 0 1 1.46925,-0.0785 14.724245,14.724245 0 0 1 1.0405,0.0366 14.724245,14.724245 0 0 1 1.46139,0.17786 14.724245,14.724245 0 0 1 1.43529,0.32155 14.724245,14.724245 0 0 1 1.39865,0.46536 14.724245,14.724245 0 0 1 1.34114,0.60129 14.724245,14.724245 0 0 1 1.2784,0.73201 14.724245,14.724245 0 0 1 1.19736,0.85488 14.724245,14.724245 0 0 1 1.10584,0.97253 14.724245,14.724245 0 0 1 1.00131,1.07711 14.724245,14.724245 0 0 1 0.89147,1.17121 14.724245,14.724245 0 0 1 0.76861,1.25487 14.724245,14.724245 0 0 1 0.64052,1.32547 14.724245,14.724245 0 0 1 0.50456,1.38298 14.724245,14.724245 0 0 1 0.36601,1.4248 14.724245,14.724245 0 0 1 0.2196,1.45617 14.724245,14.724245 0 0 1 0.0732,1.46925 14.724245,14.724245 0 0 1 -0.0366,1.0405 14.724245,14.724245 0 0 1 -0.17786,1.46141 14.724245,14.724245 0 0 1 -0.32156,1.43526 14.724245,14.724245 0 0 1 -0.46535,1.39866 14.724245,14.724245 0 0 1 -0.60131,1.34116 14.724245,14.724245 0 0 1 -0.73201,1.27839 14.724245,14.724245 0 0 1 -0.85489,1.19735 14.724245,14.724245 0 0 1 -0.97251,1.10586 14.724245,14.724245 0 0 1 -1.07711,1.0013 14.724245,14.724245 0 0 1 -1.17121,0.89148 14.724245,14.724245 0 0 1 -1.25487,0.76859 14.724245,14.724245 0 0 1 -1.32547,0.64054 14.724245,14.724245 0 0 1 -1.38296,0.50456 14.724245,14.724245 0 0 1 -1.42484,0.366 14.724245,14.724245 0 0 1 -1.45614,0.21959 14.724245,14.724245 0 0 1 -1.46926,0.0732 14.724245,14.724245 0 0 1 -1.04052,-0.0366 14.724245,14.724245 0 0 1 -1.46138,-0.17785 14.724245,14.724245 0 0 1 -1.43528,-0.32155 14.724245,14.724245 0 0 1 -1.39865,-0.46538 14.724245,14.724245 0 0 1 -1.34116,-0.60129 14.724245,14.724245 0 0 1 -1.27838,-0.73199 14.724245,14.724245 0 0 1 -1.19737,-0.8549 14.724245,14.724245 0 0 1 -1.10585,-0.97251 14.724245,14.724245 0 0 1 -1.00131,-1.07711 14.724245,14.724245 0 0 1 -0.89145,-1.17121 14.724245,14.724245 0 0 1 -0.76864,-1.25489 14.724245,14.724245 0 0 1 -0.64052,-1.32546 14.724245,14.724245 0 0 1 -0.50456,-1.38298 14.724245,14.724245 0 0 1 -0.36599,-1.42481 14.724245,14.724245 0 0 1 -0.21959,-1.45617 14.724245,14.724245 0 0 1 -0.0732,-1.46926 14.724245,14.724245 0 0 1 0.021,-0.65879 14.724245,14.724245 0 0 1 0.15152,-1.46402 l -57.00789,0 a 71.667653,71.667653 0 0 0 -0.1072,2.12281 71.667653,71.667653 0 0 0 71.66639,71.66642 71.667653,71.667653 0 0 0 71.66899,-71.66642 71.667653,71.667653 0 0 0 -71.66899,-71.66901 z"
         style="opacity:1;fill:#d5d5ff;fill-opacity:1;stroke:#5555ff;stroke-width:3.70906758;stroke-miterlimit:4;stroke-dasharray:none;stroke-dashoffset:0;stroke-opacity:1" />
      <path
         inkscape:connector-curvature="0"
         id="path4335"
         d="m 604.30419,565.25394 -40.57164,40.57164 a 71.667653,71.667653 0 0 0 53.5387,24.13019 71.667653,71.667653 0 0 0 71.66901,-71.66641 71.667653,71.667653 0 0 0 -71.66901,-71.66901 71.667653,71.667653 0 0 0 -2.28753,0.081 l 0,57.05236 a 14.724245,14.724245 0 0 1 0.81828,-0.10979 14.724245,14.724245 0 0 1 1.46925,-0.0785 14.724245,14.724245 0 0 1 1.0405,0.0366 14.724245,14.724245 0 0 1 1.46139,0.17786 14.724245,14.724245 0 0 1 1.43529,0.32155 14.724245,14.724245 0 0 1 1.39865,0.46536 14.724245,14.724245 0 0 1 1.34114,0.60129 14.724245,14.724245 0 0 1 1.2784,0.73201 14.724245,14.724245 0 0 1 1.19736,0.85488 14.724245,14.724245 0 0 1 1.10584,0.97253 14.724245,14.724245 0 0 1 1.00131,1.07711 14.724245,14.724245 0 0 1 0.89147,1.17121 14.724245,14.724245 0 0 1 0.76861,1.25487 14.724245,14.724245 0 0 1 0.64052,1.32547 14.724245,14.724245 0 0 1 0.50456,1.38298 14.724245,14.724245 0 0 1 0.36601,1.4248 14.724245,14.724245 0 0 1 0.2196,1.45617 14.724245,14.724245 0 0 1 0.0732,1.46925 14.724245,14.724245 0 0 1 -0.0366,1.0405 14.724245,14.724245 0 0 1 -0.17786,1.46141 14.724245,14.724245 0 0 1 -0.32156,1.43526 14.724245,14.724245 0 0 1 -0.46535,1.39866 14.724245,14.724245 0 0 1 -0.60131,1.34116 14.724245,14.724245 0 0 1 -0.73201,1.27839 14.724245,14.724245 0 0 1 -0.85489,1.19735 14.724245,14.724245 0 0 1 -0.97251,1.10586 14.724245,14.724245 0 0 1 -1.07711,1.0013 14.724245,14.724245 0 0 1 -1.17121,0.89148 14.724245,14.724245 0 0 1 -1.25487,0.76859 14.724245,14.724245 0 0 1 -1.32547,0.64054 14.724245,14.724245 0 0 1 -1.38296,0.50456 14.724245,14.724245 0 0 1 -1.42484,0.366 14.724245,14.724245 0 0 1 -1.45614,0.21959 14.724245,14.724245 0 0 1 -1.46926,0.0732 14.724245,14.724245 0 0 1 -1.04052,-0.0366 14.724245,14.724245 0 0 1 -1.46138,-0.17785 14.724245,14.724245 0 0 1 -1.43528,-0.32155 14.724245,14.724245 0 0 1 -1.39865,-0.46538 14.724245,14.724245 0 0 1 -1.34116,-0.60129 14.724245,14.724245 0 0 1 -1.27838,-0.73199 14.724245,14.724245 0 0 1 -1.19737,-0.8549 14.724245,14.724245 0 0 1 -1.10585,-0.97251 14.724245,14.724245 0 0 1 -1.00131,-1.07711 14.724245,14.724245 0 0 1 -0.89145,-1.17121 14.724245,14.724245 0 0 1 -0.76864,-1.25489 14.724245,14.724245 0 0 1 -0.0469,-0.0942 z"
         style="opacity:1;fill:#8080ff;fill-opacity:1;stroke:#5555ff;stroke-width:3.70906758;stroke-miterlimit:4;stroke-dasharray:none;stroke-dashoffset:0;stroke-opacity:1" />
      <path
         inkscape:connector-curvature="0"
         id="path4267"
         d="m 617.27125,505.95326 a 52.334509,52.334505 0 0 0 -2.28753,0.081 l 0,37.71944 a 14.724245,14.724245 0 0 1 0.81828,-0.10979 14.724245,14.724245 0 0 1 1.46925,-0.0785 14.724245,14.724245 0 0 1 1.0405,0.0366 14.724245,14.724245 0 0 1 1.46139,0.17786 14.724245,14.724245 0 0 1 1.43529,0.32155 14.724245,14.724245 0 0 1 1.39865,0.46536 14.724245,14.724245 0 0 1 1.34114,0.60129 14.724245,14.724245 0 0 1 1.2784,0.73201 14.724245,14.724245 0 0 1 1.19736,0.85488 14.724245,14.724245 0 0 1 1.10584,0.97253 14.724245,14.724245 0 0 1 1.00131,1.07711 14.724245,14.724245 0 0 1 0.89147,1.17121 14.724245,14.724245 0 0 1 0.76861,1.25487 14.724245,14.724245 0 0 1 0.64052,1.32547 14.724245,14.724245 0 0 1 0.50456,1.38298 14.724245,14.724245 0 0 1 0.36601,1.4248 14.724245,14.724245 0 0 1 0.2196,1.45617 14.724245,14.724245 0 0 1 0.0732,1.46925 14.724245,14.724245 0 0 1 -0.0366,1.0405 14.724245,14.724245 0 0 1 -0.17786,1.46141 14.724245,14.724245 0 0 1 -0.32156,1.43526 14.724245,14.724245 0 0 1 -0.46535,1.39866 14.724245,14.724245 0 0 1 -0.60131,1.34116 14.724245,14.724245 0 0 1 -0.73201,1.27839 14.724245,14.724245 0 0 1 -0.85489,1.19735 14.724245,14.724245 0 0 1 -0.97251,1.10586 14.724245,14.724245 0 0 1 -1.07711,1.0013 14.724245,14.724245 0 0 1 -1.17121,0.89148 14.724245,14.724245 0 0 1 -1.25487,0.76859 14.724245,14.724245 0 0 1 -1.32547,0.64054 14.724245,14.724245 0 0 1 -1.38296,0.50456 14.724245,14.724245 0 0 1 -1.42484,0.366 14.724245,14.724245 0 0 1 -1.45614,0.21959 14.724245,14.724245 0 0 1 -1.46926,0.0732 14.724245,14.724245 0 0 1 -1.04052,-0.0366 14.724245,14.724245 0 0 1 -1.46138,-0.17785 14.724245,14.724245 0 0 1 -1.43528,-0.32155 14.724245,14.724245 0 0 1 -1.39865,-0.46538 14.724245,14.724245 0 0 1 -1.34116,-0.60129 14.724245,14.724245 0 0 1 -1.27838,-0.73199 14.724245,14.724245 0 0 1 -1.19737,-0.8549 14.724245,14.724245 0 0 1 -1.10585,-0.97251 14.724245,14.724245 0 0 1 -1.00131,-1.07711 14.724245,14.724245 0 0 1 -0.89145,-1.17121 14.724245,14.724245 0 0 1 -0.76864,-1.25489 14.724245,14.724245 0 0 1 -0.64052,-1.32546 14.724245,14.724245 0 0 1 -0.50456,-1.38298 14.724245,14.724245 0 0 1 -0.36599,-1.42481 14.724245,14.724245 0 0 1 -0.21959,-1.45617 14.724245,14.724245 0 0 1 -0.0732,-1.46926 14.724245,14.724245 0 0 1 0.021,-0.65879 14.724245,14.724245 0 0 1 0.15152,-1.46402 l -37.675,0 a 52.334509,52.334505 0 0 0 -0.10718,2.12281 52.334509,52.334505 0 0 0 52.33348,52.33349 52.334509,52.334505 0 0 0 52.3361,-52.33349 52.334509,52.334505 0 0 0 -52.3361,-52.33608 z"
         style="opacity:1;fill:#d5d5ff;fill-opacity:1;stroke:#5555ff;stroke-width:3.70906758;stroke-miterlimit:4;stroke-dasharray:none;stroke-dashoffset:0;stroke-opacity:1" />
      <path
         inkscape:connector-curvature="0"
         id="path4312"
         d="m 617.27125,505.95326 a 52.334509,52.334505 0 0 0 -2.28753,0.081 l 0,37.71944 a 14.724245,14.724245 0 0 1 0.81828,-0.10979 14.724245,14.724245 0 0 1 1.46925,-0.0785 14.724245,14.724245 0 0 1 1.0405,0.0366 14.724245,14.724245 0 0 1 1.46139,0.17786 14.724245,14.724245 0 0 1 1.43529,0.32155 14.724245,14.724245 0 0 1 1.39865,0.46536 14.724245,14.724245 0 0 1 1.34114,0.60129 14.724245,14.724245 0 0 1 1.2784,0.73201 14.724245,14.724245 0 0 1 1.19736,0.85488 14.724245,14.724245 0 0 1 1.10584,0.97253 14.724245,14.724245 0 0 1 1.00131,1.07711 14.724245,14.724245 0 0 1 0.89147,1.17121 14.724245,14.724245 0 0 1 0.76861,1.25487 14.724245,14.724245 0 0 1 0.64052,1.32547 14.724245,14.724245 0 0 1 0.50456,1.38298 14.724245,14.724245 0 0 1 0.36601,1.4248 14.724245,14.724245 0 0 1 0.2196,1.45617 14.724245,14.724245 0 0 1 0.0732,1.46925 14.724245,14.724245 0 0 1 -0.0366,1.0405 14.724245,14.724245 0 0 1 -0.17786,1.46141 14.724245,14.724245 0 0 1 -0.32156,1.43526 14.724245,14.724245 0 0 1 -0.46535,1.39866 14.724245,14.724245 0 0 1 -0.60131,1.34116 14.724245,14.724245 0 0 1 -0.73201,1.27839 14.724245,14.724245 0 0 1 -0.85489,1.19735 14.724245,14.724245 0 0 1 -0.97251,1.10586 14.724245,14.724245 0 0 1 -0.021,0.0185 l 26.57717,26.57719 a 52.334509,52.334505 0 0 0 15.21798,-36.8541 52.334509,52.334505 0 0 0 -52.3361,-52.33611 z"
         style="opacity:1;fill:#8080ff;fill-opacity:1;stroke:#5555ff;stroke-width:3.70906758;stroke-miterlimit:4;stroke-dasharray:none;stroke-dashoffset:0;stroke-opacity:1" />
      <path
         inkscape:connector-curvature="0"
         id="path4272"
         d="m 617.27125,525.02473 a 33.262931,33.262931 0 0 0 -2.28753,0.081 l 0,18.64798 a 14.724245,14.724245 0 0 1 0.81828,-0.10979 14.724245,14.724245 0 0 1 1.46925,-0.0785 14.724245,14.724245 0 0 1 1.0405,0.0366 14.724245,14.724245 0 0 1 1.46139,0.17786 14.724245,14.724245 0 0 1 1.43529,0.32155 14.724245,14.724245 0 0 1 1.39865,0.46536 14.724245,14.724245 0 0 1 1.34114,0.60129 14.724245,14.724245 0 0 1 1.2784,0.73201 14.724245,14.724245 0 0 1 1.19736,0.85488 14.724245,14.724245 0 0 1 1.10584,0.97253 14.724245,14.724245 0 0 1 1.00131,1.07711 14.724245,14.724245 0 0 1 0.89147,1.17121 14.724245,14.724245 0 0 1 0.76861,1.25487 14.724245,14.724245 0 0 1 0.64052,1.32547 14.724245,14.724245 0 0 1 0.50456,1.38298 14.724245,14.724245 0 0 1 0.36601,1.4248 14.724245,14.724245 0 0 1 0.2196,1.45617 14.724245,14.724245 0 0 1 0.0732,1.46925 14.724245,14.724245 0 0 1 -0.0366,1.0405 14.724245,14.724245 0 0 1 -0.17786,1.46141 14.724245,14.724245 0 0 1 -0.32156,1.43526 14.724245,14.724245 0 0 1 -0.46535,1.39866 14.724245,14.724245 0 0 1 -0.60131,1.34116 14.724245,14.724245 0 0 1 -0.73201,1.27839 14.724245,14.724245 0 0 1 -0.85489,1.19735 14.724245,14.724245 0 0 1 -0.97251,1.10586 14.724245,14.724245 0 0 1 -1.07711,1.0013 14.724245,14.724245 0 0 1 -1.17121,0.89148 14.724245,14.724245 0 0 1 -1.25487,0.76859 14.724245,14.724245 0 0 1 -1.32547,0.64054 14.724245,14.724245 0 0 1 -1.38296,0.50456 14.724245,14.724245 0 0 1 -1.42484,0.366 14.724245,14.724245 0 0 1 -1.45614,0.21959 14.724245,14.724245 0 0 1 -1.46926,0.0732 14.724245,14.724245 0 0 1 -1.04052,-0.0366 14.724245,14.724245 0 0 1 -1.46138,-0.17785 14.724245,14.724245 0 0 1 -1.43528,-0.32155 14.724245,14.724245 0 0 1 -1.39865,-0.46538 14.724245,14.724245 0 0 1 -1.34116,-0.60129 14.724245,14.724245 0 0 1 -1.27838,-0.73199 14.724245,14.724245 0 0 1 -1.19737,-0.8549 14.724245,14.724245 0 0 1 -1.10585,-0.97251 14.724245,14.724245 0 0 1 -1.00131,-1.07711 14.724245,14.724245 0 0 1 -0.89145,-1.17121 14.724245,14.724245 0 0 1 -0.76864,-1.25489 14.724245,14.724245 0 0 1 -0.64052,-1.32546 14.724245,14.724245 0 0 1 -0.50456,-1.38298 14.724245,14.724245 0 0 1 -0.36599,-1.42481 14.724245,14.724245 0 0 1 -0.21959,-1.45617 14.724245,14.724245 0 0 1 -0.0732,-1.46926 14.724245,14.724245 0 0 1 0.021,-0.65879 14.724245,14.724245 0 0 1 0.15152,-1.46402 l -18.60351,0 a 33.262931,33.262931 0 0 0 -0.1072,2.12281 33.262931,33.262931 0 0 0 33.26204,33.26204 33.262931,33.262931 0 0 0 33.2646,-33.26204 33.262931,33.262931 0 0 0 -33.2646,-33.26462 z"
         style="opacity:1;fill:#d5d5ff;fill-opacity:1;stroke:#5555ff;stroke-width:3.70906758;stroke-linecap:butt;stroke-miterlimit:4;stroke-dasharray:none;stroke-dashoffset:0;stroke-opacity:1" />
      <path
         inkscape:connector-curvature="0"
         id="path4305"
         d="m 617.27125,525.02473 a 33.262931,33.262931 0 0 0 -2.28753,0.081 l 0,18.64798 a 14.724245,14.724245 0 0 1 0.81828,-0.10979 14.724245,14.724245 0 0 1 1.46925,-0.0785 14.724245,14.724245 0 0 1 1.0405,0.0366 14.724245,14.724245 0 0 1 1.46139,0.17786 14.724245,14.724245 0 0 1 1.43529,0.32155 14.724245,14.724245 0 0 1 1.39865,0.46536 14.724245,14.724245 0 0 1 1.34114,0.60129 14.724245,14.724245 0 0 1 1.2784,0.73201 14.724245,14.724245 0 0 1 1.19736,0.85488 14.724245,14.724245 0 0 1 1.10584,0.97253 14.724245,14.724245 0 0 1 1.00131,1.07711 14.724245,14.724245 0 0 1 0.89147,1.17121 14.724245,14.724245 0 0 1 0.76861,1.25487 14.724245,14.724245 0 0 1 0.64052,1.32547 14.724245,14.724245 0 0 1 0.50456,1.38298 14.724245,14.724245 0 0 1 0.36601,1.4248 14.724245,14.724245 0 0 1 0.10463,0.68493 l 18.61657,0 a 33.262931,33.262931 0 0 0 -33.15225,-31.024 z"
         style="opacity:1;fill:#8080ff;fill-opacity:1;stroke:#5555ff;stroke-width:3.70906758;stroke-miterlimit:4;stroke-dasharray:none;stroke-dashoffset:0;stroke-opacity:1" />
    </g>
  </g>
</svg>
